<?xml version="1.0" standalone="no"?>
<!DOCTYPE svg PUBLIC "-//W3C//DTD SVG 20010904//EN"
 "http://www.w3.org/TR/2001/REC-SVG-20010904/DTD/svg10.dtd">
<svg version="1.0" xmlns="http://www.w3.org/2000/svg"
 width="801.000000pt" height="818.000000pt" viewBox="0 0 801.000000 818.000000"
 preserveAspectRatio="xMidYMid meet">
<metadata>
Created by potrace 1.16, written by Peter Selinger 2001-2019
</metadata>
<g transform="translate(0.000000,818.000000) scale(0.100000,-0.100000)"
fill="blue" stroke="none">
<path d="M2205 7643 c-215 -48 -398 -186 -485 -367 -192 -396 24 -854 447
-950 85 -19 186 -20 299 -4 71 10 85 10 106 -4 16 -11 46 -69 97 -189 41 -96
132 -305 203 -465 70 -160 128 -296 128 -301 0 -20 -43 -64 -114 -118 -135
-101 -256 -247 -317 -381 -60 -131 -73 -203 -74 -389 0 -93 4 -196 8 -227 8
-53 6 -60 -15 -81 -13 -12 -59 -35 -103 -51 -44 -15 -266 -97 -493 -183 -227
-85 -423 -153 -435 -151 -13 2 -42 30 -72 68 -114 149 -232 239 -370 283 -59
19 -93 22 -220 22 -167 0 -242 -16 -360 -78 -93 -49 -210 -172 -267 -282 -138
-268 -129 -509 30 -742 54 -79 157 -181 226 -222 107 -64 177 -84 318 -89 157
-5 246 12 373 73 142 69 242 166 309 301 57 116 68 164 75 342 7 184 7 184 94
216 23 8 242 90 487 181 245 91 456 164 470 163 15 -2 32 -16 45 -35 11 -17
40 -64 64 -103 74 -117 205 -236 326 -297 67 -34 85 -51 85 -83 0 -22 -271
-766 -398 -1090 -43 -111 -60 -125 -132 -108 -67 15 -233 4 -315 -22 -123 -38
-202 -87 -295 -180 -96 -96 -148 -178 -187 -295 -24 -71 -27 -96 -27 -215 0
-126 2 -141 31 -223 42 -120 85 -188 173 -277 200 -202 468 -268 734 -179 265
88 430 275 482 546 55 288 -48 544 -291 723 -92 68 -93 50 28 367 58 153 156
417 218 587 87 237 118 312 136 323 20 14 36 14 119 3 173 -23 354 0 473 59
42 21 88 41 103 45 63 15 127 -40 194 -167 20 -38 61 -105 91 -150 99 -148
100 -152 32 -250 -61 -87 -82 -155 -82 -262 0 -69 5 -103 22 -146 107 -276
396 -395 651 -268 228 115 322 390 211 623 -84 174 -303 282 -502 248 -100
-17 -115 -16 -139 16 -65 82 -280 428 -280 449 0 17 20 45 61 86 89 90 146
170 195 272 54 111 81 215 96 365 8 83 16 120 28 133 14 15 63 24 246 48 224
29 419 60 499 79 115 27 152 6 191 -113 141 -429 470 -735 909 -846 598 -150
1182 117 1460 668 43 86 86 213 111 331 28 130 26 372 -5 510 -57 259 -175
468 -372 656 -174 166 -380 273 -634 331 -112 25 -376 25 -495 -1 -260 -56
-510 -194 -681 -373 -215 -228 -328 -498 -348 -836 -10 -178 -1 -171 -249
-202 -105 -14 -285 -40 -401 -60 -115 -19 -220 -35 -234 -35 -32 0 -51 24 -72
90 -65 203 -227 413 -388 503 -47 26 -95 59 -106 73 -32 41 -27 111 15 219 20
50 47 119 60 155 39 101 53 111 176 122 205 20 355 86 482 215 112 112 175
233 203 387 55 304 -110 625 -392 762 -106 51 -204 74 -321 74 -115 0 -210
-23 -324 -77 -177 -85 -320 -262 -370 -459 -41 -158 -21 -353 50 -495 70 -141
160 -236 266 -285 40 -18 82 -46 98 -65 25 -29 28 -39 23 -81 -6 -50 -121
-352 -144 -378 -11 -12 -25 -12 -96 -2 -112 16 -288 15 -367 -4 -123 -27 -126
-28 -147 -7 -10 10 -63 122 -117 249 -54 126 -141 322 -192 435 -52 114 -97
221 -100 238 -12 61 3 96 82 183 134 148 193 312 180 499 -12 175 -73 308
-200 434 -135 135 -286 196 -475 194 -53 -1 -105 -3 -116 -6z m212 -334 c118
-56 190 -174 180 -295 -8 -110 -80 -213 -187 -270 -26 -14 -56 -19 -120 -19
-73 0 -92 4 -135 27 -191 102 -237 311 -104 479 57 73 172 123 259 113 25 -3
73 -19 107 -35z m839 -2233 c119 -31 212 -108 261 -214 144 -311 -118 -656
-447 -588 -91 19 -158 56 -221 123 -150 158 -152 404 -5 561 49 53 139 106
202 121 59 14 153 12 210 -3z m2776 -272 c17 -156 70 -267 182 -379 147 -147
312 -206 516 -184 293 33 521 265 555 567 l7 62 168 0 c93 0 171 -3 173 -7 9
-18 -15 -188 -39 -269 -85 -296 -311 -541 -597 -648 -177 -66 -393 -78 -572
-32 -115 30 -242 88 -329 150 -73 52 -183 163 -236 238 -95 134 -164 323 -177
486 l-6 82 174 -2 174 -3 7 -61z m-3592 -2816 c63 -19 150 -70 186 -111 20
-22 50 -69 68 -106 29 -62 31 -73 31 -176 0 -102 -2 -114 -31 -175 -45 -95
-102 -153 -190 -196 -274 -136 -594 64 -594 370 0 274 266 471 530 394z"/>
</g>
</svg>
