<svg id="svg" version="1.1" xmlns="http://www.w3.org/2000/svg" style="display: block;" viewBox="0 0 801 818"><path d="M0 0 C264.33 0 528.66 0 801 0 C801 269.94 801 539.88 801 818 C536.67 818 272.34 818 0 818 C0 548.06 0 278.12 0 0 Z " transform="translate(0,0)" style="fill: #FEFEFE;"/><path d="M0 0 C1.01586182 0.01160156 2.03172363 0.02320313 3.07836914 0.03515625 C21.14777841 0.42951389 37.06389409 7.26973066 49.625 20.375 C50.31851562 21.03757812 51.01203125 21.70015625 51.7265625 22.3828125 C63.3237733 34.1591308 68.79125836 50.54698844 69 66.8125 C68.82862536 84.83103105 62.88733101 101.40604118 49.9375 114.125 C49.19113281 114.82109375 48.44476563 115.5171875 47.67578125 116.234375 C44.48605063 119.5638462 42.19761006 122.72692212 42.125 127.4375 C42.5744222 136.47206377 47.89761816 145.06512362 51.72314453 153.10302734 C59.4163873 169.27433681 66.36205577 185.74376684 73.26416016 202.26538086 C73.66324585 203.21933243 74.06233154 204.173284 74.47351074 205.15614319 C75.22459246 206.95305104 75.97366351 208.75080117 76.72033691 210.54954529 C79.39622557 217.09698349 79.39622557 217.09698349 82.625 223.375 C87.17673941 224.98707437 89.93144084 224.36638579 94.4453125 222.88671875 C101.46853055 220.90947191 108.25036232 221.00818811 115.5 221.125 C116.77230469 221.13015625 118.04460937 221.1353125 119.35546875 221.140625 C127.48200521 221.20703184 135.53230699 221.64007751 143.625 222.375 C144.7451464 219.67983453 145.86500725 216.98455151 146.984375 214.2890625 C148.20663939 211.35963034 149.45151301 208.44044577 150.703125 205.5234375 C151.06148438 204.68401611 151.41984375 203.84459473 151.7890625 202.97973633 C152.50398754 201.30605953 153.22264356 199.63397075 153.9453125 197.96362305 C156.60909515 191.71005772 158.24104513 186.27470546 157.625 179.375 C154.54517176 174.36132611 150.62279154 172.64667669 145.5 170.25 C128.98422597 161.95449362 120.79023256 147.02933701 114.53515625 130.21484375 C110.35842305 117.18271913 110.76970791 99.10711789 115.625 86.375 C115.91503906 85.59769531 116.20507812 84.82039063 116.50390625 84.01953125 C120.73966807 73.72255378 126.85478549 65.29258065 134.625 57.375 C135.22828125 56.74722656 135.8315625 56.11945313 136.453125 55.47265625 C149.94904286 42.53417847 167.8130939 37.73945763 186.0090332 37.90185547 C203.96446578 38.44770298 219.14873379 44.38592785 232.625 56.375 C233.31207031 56.96796875 233.99914062 57.5609375 234.70703125 58.171875 C247.72271933 70.1863563 255.92408902 87.85856453 256.87890625 105.46875 C257.58625766 125.22971207 251.14498132 144.0062117 238.015625 158.921875 C223.48502112 173.83236395 206.19284085 181.16383627 185.66699219 182.55419922 C184.83200195 182.61881348 183.99701172 182.68342773 183.13671875 182.75 C182.38865967 182.79898438 181.64060059 182.84796875 180.86987305 182.8984375 C177.91951055 183.52476785 176.04307263 184.57168319 173.625 186.375 C172.10457042 188.68006828 172.10457042 188.68006828 171.0546875 191.3828125 C170.42240234 192.86394531 170.42240234 192.86394531 169.77734375 194.375 C169.14505859 195.921875 169.14505859 195.921875 168.5 197.5 C168.07074219 198.50804687 167.64148438 199.51609375 167.19921875 200.5546875 C162.15702703 211.7043079 162.15702703 211.7043079 160.25 223.625 C160.24226563 224.41390625 160.23453125 225.2028125 160.2265625 226.015625 C160.75501679 229.14490333 161.67431213 230.85720493 163.625 233.375 C165.85322415 234.8189572 167.96462558 236.04928742 170.3125 237.25 C176.09495476 240.380279 180.92182969 243.7358184 185.625 248.375 C186.20378906 248.90480469 186.78257812 249.43460938 187.37890625 249.98046875 C192.57126633 254.87081236 196.62042908 260.49507788 200.625 266.375 C201.16253906 267.15617187 201.70007813 267.93734375 202.25390625 268.7421875 C205.92806452 274.4404904 208.3105824 280.38257912 210.53369141 286.75463867 C211.88567732 290.60358246 213.47605112 293.91818903 215.625 297.375 C224.67430302 296.88441074 233.41183345 295.86413415 242.3125 294.1875 C251.50748035 292.51081954 260.70030216 291.0517646 269.96484375 289.81640625 C270.93804062 289.68581314 271.91123749 289.55522003 272.91392517 289.42066956 C277.78781536 288.76937171 282.66324446 288.13455347 287.54174805 287.51879883 C289.34299262 287.28118903 291.14418338 287.04317087 292.9453125 286.8046875 C293.77840439 286.70479019 294.61149628 286.60489288 295.46983337 286.50196838 C299.55400789 285.9493061 302.00473447 285.61599308 304.625 282.375 C305.51798902 279.69603294 305.76868071 278.02798529 305.8359375 275.26953125 C306.187311 264.36068541 307.05463259 254.02064902 309.625 243.375 C309.78452148 242.70436523 309.94404297 242.03373047 310.10839844 241.34277344 C315.77431932 218.29846183 327.26323424 199.36509778 343.625 182.375 C344.20636719 181.73046875 344.78773438 181.0859375 345.38671875 180.421875 C363.51724615 160.87561372 394.96813899 146.66718971 421.57495117 145.21386719 C461.28525038 144.67474244 494.18429928 153.47664724 523.625 181.375 C524.98818359 182.64150391 524.98818359 182.64150391 526.37890625 183.93359375 C533.17900289 190.44995896 538.64693192 197.39225509 543.625 205.375 C543.98223145 205.94653809 544.33946289 206.51807617 544.70751953 207.10693359 C552.6906765 220.06012122 557.46280167 233.5467171 560.625 248.375 C560.80450195 249.19524658 560.98400391 250.01549316 561.16894531 250.8605957 C562.62082755 258.03624447 563.01054631 265.00074424 563 272.3125 C562.99758301 274.077146 562.99758301 274.077146 562.99511719 275.87744141 C562.84900917 286.42443458 561.29418515 296.1996399 558.625 306.375 C558.35945312 307.49003906 558.09390625 308.60507812 557.8203125 309.75390625 C549.59832032 340.41019136 527.748135 368.28829682 500.50927734 384.29589844 C469.63464475 401.97740609 434.35854161 406.35230386 399.8125 397.25 C380.59457699 391.80731977 362.3727538 382.54054462 347.95703125 368.6015625 C345.66274745 366.33651518 345.66274745 366.33651518 343.09765625 364.40625 C327.31299851 351.43939056 317.64387138 330.66593498 311.41430664 311.70019531 C311.1074292 310.79366211 310.80055176 309.88712891 310.484375 308.953125 C310.08943848 307.73737793 310.08943848 307.73737793 309.68652344 306.49707031 C308.38033335 303.88589179 307.14715737 302.82480959 304.625 301.375 C298.51524649 300.31227407 292.11429294 301.84981078 286.125 303.0625 C276.40488872 304.92520946 266.65889121 306.51807286 256.875 308 C256.16218872 308.10861359 255.44937744 308.21722717 254.71496582 308.32913208 C245.12998216 309.78412725 235.55751182 311.04317062 225.890625 311.8203125 C222.270731 312.43517488 220.32690587 312.86217779 217.625 315.375 C216.96084839 318.33183937 216.61193753 320.82472177 216.4375 323.8125 C216.29776607 325.45070938 216.15583604 327.08873291 216.01171875 328.7265625 C215.94774902 329.52481445 215.8837793 330.32306641 215.81787109 331.14550781 C214.05890329 351.47828504 206.17812334 370.12773624 192.625 385.375 C191.56233073 386.64569179 190.49981695 387.91651365 189.4375 389.1875 C187.59920199 391.35406551 185.88366238 393.00592564 183.6875 394.875 C181.33007236 397.2134577 181.33007236 397.2134577 181.53125 400.31640625 C182.59647648 406.23091284 186.69453829 410.99624644 190.0625 415.8125 C191.52402661 417.94792561 192.98365912 420.0846488 194.44140625 422.22265625 C195.15570801 423.26566895 195.87000977 424.30868164 196.60595703 425.38330078 C199.77643796 430.08113311 202.75727209 434.88853612 205.70483398 439.72827148 C207.20914799 442.18359244 208.58003985 444.33003985 210.625 446.375 C214.76497567 446.5721417 217.70203567 446.68265478 221.625 445.375 C236.29592197 444.327077 248.3162682 446.93737594 260.625 455.375 C261.511875 455.9525 262.39875 456.53 263.3125 457.125 C271.12169571 464.72313637 277.09048212 475.39834858 277.828125 486.40625 C278.03767577 501.91300731 274.68613526 513.69785566 264.05078125 525.046875 C253.25698851 535.40613502 241.24269341 538.83576587 226.62890625 538.58203125 C215.13344804 538.14495178 204.09337003 532.47729099 196.25 524.125 C187.32955563 513.16453717 182.82480294 500.84901069 183.21484375 486.671875 C184.22926197 478.51788474 187.51919873 471.61032274 192.375 465.0625 C194.91223794 461.59196088 196.90390558 458.79177468 197.078125 454.41015625 C196.26794872 450.77134726 194.03381908 448.1805602 191.7890625 445.26953125 C189.32085427 441.96819137 187.21984338 438.54487828 185.125 435 C184.5532605 434.04299194 184.5532605 434.04299194 183.9699707 433.06665039 C182.17001353 430.04089668 180.41676944 427.00010018 178.70703125 423.921875 C174.44657357 415.93768238 174.44657357 415.93768238 167.625 410.375 C160.4630116 408.56789346 155.43894796 411.28837876 149.20532227 414.6574707 C133.23981141 423.01104759 112.70135211 421.47590428 95.33984375 419.203125 C92.55199117 419.11950706 92.55199117 419.11950706 90.61474609 420.97705078 C88.23498687 423.84502564 87.27287688 426.38721797 86.07421875 429.9140625 C85.85481628 430.54744537 85.63541382 431.18082825 85.40936279 431.83340454 C84.9422959 433.18527414 84.48036043 434.53892585 84.02316284 435.89416504 C82.82479684 439.44516119 81.58888333 442.9831319 80.359375 446.5234375 C80.11960434 447.21751709 79.87983368 447.91159668 79.63279724 448.62670898 C77.88572309 453.6726442 76.03913076 458.66510427 74.0625 463.625 C70.82369956 471.78635133 67.78439546 480.01560859 64.7578125 488.2578125 C62.27176823 495.00242807 59.73014968 501.72099873 57.12890625 508.421875 C56.83274414 509.18701416 56.53658203 509.95215332 56.23144531 510.74047852 C54.7720616 514.51075215 53.30592022 518.27811217 51.82763672 522.04101562 C51.28969235 523.42825102 50.75207901 524.81561484 50.21484375 526.203125 C49.73909912 527.4190332 49.26335449 528.63494141 48.77319336 529.88769531 C47.60286195 533.44223792 46.87156296 536.64023794 46.625 540.375 C48.6077764 543.12573701 48.6077764 543.12573701 51.625 545.375 C52.70351974 546.27166083 53.78162878 547.16881583 54.859375 548.06640625 C55.42914063 548.52982422 55.99890625 548.99324219 56.5859375 549.47070312 C70.236053 560.66200961 81.26467598 575.42463662 83.625 593.375 C84.28854498 603.69608076 84.39327512 614.35093007 81.625 624.375 C81.31820313 625.53 81.01140625 626.685 80.6953125 627.875 C75.1923354 646.39536431 64.16466865 659.73545841 47.43310547 669.39697266 C42.69617841 671.95923701 37.74502317 673.74908978 32.625 675.375 C31.66207031 675.69339844 30.69914063 676.01179687 29.70703125 676.33984375 C12.09990509 681.49604669 -7.30334234 678.40145405 -23.2890625 669.80859375 C-40.73837157 659.21612585 -52.58348867 643.90326594 -58.8671875 624.53515625 C-63.8574032 603.3075464 -59.07590998 583.24217988 -47.90625 564.97265625 C-46.5016233 562.97596306 -45.01060807 561.18782972 -43.375 559.375 C-42.60800781 558.50488281 -41.84101563 557.63476562 -41.05078125 556.73828125 C-29.10842867 543.95909228 -12.46091615 534.99263664 5.24414062 534.21630859 C9.24814739 534.17890195 13.2464167 534.19953866 17.25 534.25 C18.64973314 534.26005602 20.04947331 534.26917721 21.44921875 534.27734375 C24.84132925 534.30073762 28.2330706 534.33351827 31.625 534.375 C33.02981998 530.91460359 34.34358951 527.43426298 35.6015625 523.91796875 C42.65541477 504.31458043 49.9308456 484.79588824 57.24999237 465.29034805 C58.05796025 463.13709852 58.86569113 460.98376019 59.67340088 458.83041382 C60.97154345 455.37004248 62.27050732 451.90998048 63.57016563 448.45017815 C64.28232277 446.55431219 64.99417174 444.65833048 65.70600891 442.76234436 C68.30153408 435.85953318 70.93700811 428.97535034 73.6388092 422.11334229 C75.00576362 418.31773895 75.69078217 416.31019572 74.625 412.375 C71.9671875 410.3550625 69.54628155 408.94012457 66.625 407.375 C49.81197535 397.14526988 37.19710496 385.57469863 28.48828125 367.640625 C26.74980151 365.06149644 26.74980151 365.06149644 23.40087891 364.60839844 C19.34136997 364.35746797 17.10503325 364.89801188 13.34765625 366.375 C12.13207031 366.84252686 10.91648438 367.31005371 9.6640625 367.79174805 C8.33850927 368.31941733 7.01298947 368.84717059 5.6875 369.375 C4.2884394 369.91817464 2.88868057 370.45955378 1.48828125 370.99926758 C-1.52958208 372.16352103 -4.54453297 373.33494214 -7.55810547 374.51025391 C-15.1090819 377.4449078 -22.7036452 380.26408789 -30.29312134 383.09725952 C-32.86544019 384.05892605 -35.43626467 385.02447879 -38.0065918 385.99145508 C-45.36208317 388.75789839 -52.72027319 391.51193323 -60.109375 394.1875 C-61.23021484 394.59653564 -62.35105469 395.00557129 -63.50585938 395.42700195 C-65.50899559 396.15622757 -67.51528772 396.87687348 -69.52539062 397.58666992 C-70.38841797 397.90224854 -71.25144531 398.21782715 -72.140625 398.54296875 C-73.23552246 398.93391724 -73.23552246 398.93391724 -74.35253906 399.33276367 C-76.98472753 400.68921135 -78.54447527 402.03720316 -80.375 404.375 C-80.98185695 407.21500007 -80.98185695 407.21500007 -80.9140625 410.35546875 C-80.93726563 411.52013672 -80.96046875 412.68480469 -80.984375 413.88476562 C-80.98953125 415.09841797 -80.9946875 416.31207031 -81 417.5625 C-81.19158236 435.31260601 -84.73714914 450.7359755 -95.375 465.375 C-95.82359375 466.00792969 -96.2721875 466.64085937 -96.734375 467.29296875 C-104.21197769 476.9038875 -115.22243265 483.0327578 -126.375 487.375 C-127.37144531 487.78878906 -128.36789063 488.20257812 -129.39453125 488.62890625 C-137.40262572 491.4628435 -145.06140652 491.7564613 -153.5 491.8125 C-154.58434326 491.82265137 -155.66868652 491.83280273 -156.78588867 491.84326172 C-174.73475997 491.65013148 -189.4195048 484.69428784 -202.375 472.375 C-216.46095068 457.80694089 -225.10528087 440.05006238 -224.84375 419.55053711 C-224.16261326 401.84275578 -217.32370719 384.55447532 -205.375 371.375 C-204.73304688 370.62992187 -204.09109375 369.88484375 -203.4296875 369.1171875 C-193.24082753 358.02599306 -177.690282 350.14690105 -162.55102539 349.19799805 C-139.12255555 348.73162118 -121.33493664 350.98437821 -103.375 367.375 C-98.34307774 372.48834495 -93.82062046 377.76234193 -90.0546875 383.87890625 C-87.44951839 386.19932432 -84.74947549 386.4732211 -81.375 386.375 C-77.6741585 385.43432129 -74.20486882 384.00904947 -70.67578125 382.5625 C-69.64551315 382.15596191 -68.61524506 381.74942383 -67.55375671 381.33056641 C-64.25873994 380.02719834 -60.97300502 378.7021403 -57.6875 377.375 C-53.39442854 375.66034887 -49.09795311 373.95434517 -44.80078125 372.25 C-43.74515991 371.82986633 -42.68953857 371.40973267 -41.60192871 370.97686768 C-32.68725155 367.44860814 -23.6782752 364.26050668 -14.61129761 361.15014648 C-8.62131918 359.07389746 -2.68568064 356.85088024 3.25 354.625 C3.88776367 354.39119629 4.52552734 354.15739258 5.18261719 353.91650391 C7.05493729 353.22986052 8.922108 352.529226 10.7890625 351.828125 C11.86623535 351.42754883 12.9434082 351.02697266 14.05322266 350.61425781 C16.90242777 349.51002678 16.90242777 349.51002678 18.625 346.375 C18.65483168 343.67347187 18.65483168 343.67347187 18.265625 340.62890625 C17.56755546 333.17835632 17.40542289 325.79272779 17.375 318.3125 C17.3440625 316.40500977 17.3440625 316.40500977 17.3125 314.45898438 C17.27897609 306.29172157 18.29623303 299.18878157 20.625 291.375 C21.04392558 289.72974019 21.46095766 288.08399549 21.875 286.4375 C28.34694297 265.58716825 44.84729017 248.51431868 62.26171875 236.08203125 C64.66356818 234.44254706 64.66356818 234.44254706 66.625 232.375 C67.2298957 225.9763647 65.93234242 221.76769922 63.171875 216.05859375 C62.8041095 215.26437515 62.43634399 214.47015656 62.05743408 213.65187073 C61.25981051 211.93202727 60.45559713 210.21522776 59.64550781 208.5012207 C57.45625071 203.86819064 55.31438972 199.21338166 53.171875 194.55859375 C52.72154907 193.58256195 52.27122314 192.60653015 51.80725098 191.60092163 C48.41015189 184.19620183 45.17737583 176.73061909 42.015625 169.22265625 C41.56177429 168.14535751 41.10792358 167.06805878 40.64031982 165.95811462 C38.85693367 161.7149083 37.0787574 157.46968286 35.31628418 153.21774292 C34.09304903 150.26710139 32.85960854 147.32089628 31.625 144.375 C31.26327698 143.49050674 30.90155396 142.60601349 30.52886963 141.69471741 C30.18934265 140.88796066 29.84981567 140.08120392 29.5 139.25 C29.20867187 138.54617187 28.91734375 137.84234375 28.6171875 137.1171875 C27.60564506 135.0381728 27.60564506 135.0381728 24.625 133.375 C20.99491693 133.19935082 17.8395191 133.11721312 14.29003906 133.87060547 C-4.73242771 137.47086347 -23.54526825 133.17071914 -39.55615234 122.66650391 C-53.55452639 112.72671885 -63.44114763 96.26070568 -66.375 79.375 C-67.95859494 59.99625243 -64.96744505 42.24415637 -53.16796875 26.4140625 C-50.99854526 23.94449111 -48.74744689 21.64893699 -46.375 19.375 C-45.71242187 18.68148437 -45.04984375 17.98796875 -44.3671875 17.2734375 C-32.75258528 5.83548322 -16.08861117 -0.23610402 0 0 Z " transform="translate(231.375,52.625)" style="fill: #881813;"/><path d="M0 0 C1.32 0.33 2.64 0.66 4 1 C3.855625 1.680625 3.71125 2.36125 3.5625 3.0625 C3.2840625 4.5165625 3.2840625 4.5165625 3 6 C2.71125 7.155 2.4225 8.31 2.125 9.5 C1.59736454 13.08460283 1.59736454 13.08460283 4.0703125 15.37109375 C6.65130964 17.68710851 9.27195057 19.90861987 11.9609375 22.09570312 C25.611053 33.28700961 36.63967598 48.04963662 39 66 C39.66354498 76.32108076 39.76827512 86.97593007 37 97 C36.53980469 98.7325 36.53980469 98.7325 36.0703125 100.5 C30.5673354 119.02036431 19.53966865 132.36045841 2.80810547 142.02197266 C-1.92882159 144.58423701 -6.87997683 146.37408978 -12 148 C-12.96292969 148.31839844 -13.92585938 148.63679687 -14.91796875 148.96484375 C-32.52509491 154.12104669 -51.92834234 151.02645405 -67.9140625 142.43359375 C-85.36337157 131.84112585 -97.20848867 116.52826594 -103.4921875 97.16015625 C-108.4824032 75.9325464 -103.70090998 55.86717988 -92.53125 37.59765625 C-91.1266233 35.60096306 -89.63560807 33.81282972 -88 32 C-87.23300781 31.12988281 -86.46601563 30.25976562 -85.67578125 29.36328125 C-73.73342867 16.58409228 -57.08591615 7.61763664 -39.38085938 6.84130859 C-35.37685261 6.80390195 -31.3785833 6.82453866 -27.375 6.875 C-25.97526686 6.88505602 -24.57552669 6.89417721 -23.17578125 6.90234375 C-19.78367075 6.92573762 -16.3919294 6.95851827 -13 7 C-12.34 5.35 -11.68 3.7 -11 2 C-8.33333333 2 -5.66666667 2 -3 2 C-3 2.66 -3 3.32 -3 4 C-2.34 4 -1.68 4 -1 4 C-0.67 2.68 -0.34 1.36 0 0 Z " transform="translate(276,580)" style="fill: #881A14;"/><path d="M0 0 C1.01586182 0.01160156 2.03172363 0.02320313 3.07836914 0.03515625 C21.14777841 0.42951389 37.06389409 7.26973066 49.625 20.375 C50.31851563 21.03757812 51.01203125 21.70015625 51.7265625 22.3828125 C63.3237733 34.1591308 68.79125836 50.54698844 69 66.8125 C68.82862536 84.83103105 62.88733101 101.40604118 49.9375 114.125 C49.19113281 114.82109375 48.44476563 115.5171875 47.67578125 116.234375 C44.48605063 119.5638462 42.19761006 122.72692212 42.125 127.4375 C42.71831616 139.11912358 50.70982666 151.13599128 55.60351562 161.54296875 C56.12236328 162.65542969 56.64121094 163.76789063 57.17578125 164.9140625 C57.64669189 165.91646973 58.11760254 166.91887695 58.6027832 167.95166016 C59.625 170.375 59.625 170.375 59.625 172.375 C58.965 172.375 58.305 172.375 57.625 172.375 C57.625 171.385 57.625 170.395 57.625 169.375 C54.33803767 168.57546862 52.91476808 168.27841064 49.625 169.375 C49.295 168.715 48.965 168.055 48.625 167.375 C47.635 167.705 46.645 168.035 45.625 168.375 C46.12 169.48875 46.12 169.48875 46.625 170.625 C47.625 173.375 47.625 173.375 47.625 177.375 C46.965 177.375 46.305 177.375 45.625 177.375 C45.40615646 176.85326202 45.18731293 176.33152405 44.96183777 175.79397583 C42.68527574 170.37150296 40.39605708 164.95450403 38.09936523 159.54052734 C37.24355519 157.51847113 36.3909978 155.49503509 35.54174805 153.47021484 C34.32149192 150.56240076 33.08967908 147.65972634 31.85546875 144.7578125 C31.47722458 143.84943634 31.09898041 142.94106018 30.70927429 142.00515747 C30.34912735 141.16443695 29.98898041 140.32371643 29.61791992 139.45751953 C29.30481369 138.71583527 28.99170746 137.974151 28.66911316 137.20999146 C27.620591 135.04789055 27.620591 135.04789055 24.625 133.375 C20.99491693 133.19935082 17.8395191 133.11721312 14.29003906 133.87060547 C-4.73242771 137.47086347 -23.54526825 133.17071914 -39.55615234 122.66650391 C-53.55452639 112.72671885 -63.44114763 96.26070568 -66.375 79.375 C-67.95859494 59.99625243 -64.96744505 42.24415637 -53.16796875 26.4140625 C-50.99854526 23.94449111 -48.74744689 21.64893699 -46.375 19.375 C-45.71242187 18.68148437 -45.04984375 17.98796875 -44.3671875 17.2734375 C-32.75258528 5.83548322 -16.08861117 -0.23610402 0 0 Z " transform="translate(231.375,52.625)" style="fill: #881913;"/><path d="M0 0 C11.55 0 23.1 0 35 0 C35.66 5.28 36.32 10.56 37 16 C42.75936918 33.93632116 53.07851639 48.12509601 70 57 C73.60591763 58.5909927 77.22429503 59.87520166 81 61 C81.73734375 61.22558594 82.4746875 61.45117188 83.234375 61.68359375 C98.37187329 65.6889537 115.37905585 62.27051721 129 55 C145.00910246 44.67600421 154.2800011 31.38405367 159 13 C159.66 8.71 160.32 4.42 161 0 C172.22 0 183.44 0 195 0 C195 27.56327268 185.03897511 51.151291 166.25 71.1875 C145.11067528 91.22977394 119.26724024 98.77901642 90.640625 98.3984375 C69.81285111 97.66754748 49.31212941 89.18990494 34 75 C33.27538574 74.32880127 33.27538574 74.32880127 32.53613281 73.64404297 C25.80617772 67.3418214 19.79168201 60.93302224 15 53 C14.34386719 51.92621094 13.68773437 50.85242188 13.01171875 49.74609375 C3.97329886 34.26596239 0 17.84301119 0 0 Z " transform="translate(568,331)" style="fill: #FDFCFB;"/><path d="M0 0 C1.32 0 2.64 0 4 0 C4 0.66 4 1.32 4 2 C5.32 1.67 6.64 1.34 8 1 C8.33 1.99 8.66 2.98 9 4 C9.99 4 10.98 4 12 4 C13.8334434 6.4649289 15.45716734 8.89115875 17.0625 11.5 C17.54130615 12.25869385 18.0201123 13.0173877 18.51342773 13.79907227 C20.02034417 16.19246836 21.51164523 18.59502465 23 21 C24.41408204 23.27418891 25.82924675 25.54769299 27.24584961 27.8203125 C28.10995887 29.20980916 28.97028072 30.6016698 29.82641602 31.99609375 C31.40936232 34.55874039 32.8619481 36.8619481 35 39 C39.13997567 39.1971417 42.07703567 39.30765478 46 38 C60.67092197 36.952077 72.6912682 39.56237594 85 48 C85.886875 48.5775 86.77375 49.155 87.6875 49.75 C95.49669571 57.34813637 101.46548212 68.02334858 102.203125 79.03125 C102.41267577 94.53800731 99.06113526 106.32285566 88.42578125 117.671875 C77.63198851 128.03113502 65.61769341 131.46076587 51.00390625 131.20703125 C39.50844804 130.76995178 28.46837003 125.10229099 20.625 116.75 C11.70455563 105.78953717 7.19980294 93.47401069 7.58984375 79.296875 C8.60426197 71.14288474 11.89419873 64.23532274 16.75 57.6875 C19.28723794 54.21696088 21.27890558 51.41677468 21.453125 47.03515625 C20.64294872 43.39634726 18.40881908 40.8055602 16.1640625 37.89453125 C13.69596731 34.59334255 11.59371638 31.17041952 9.5 27.625 C9.12246582 26.98916992 8.74493164 26.35333984 8.35595703 25.69824219 C7.2329614 23.80134876 6.11562874 21.90123386 5 20 C4.64808594 19.40203613 4.29617188 18.80407227 3.93359375 18.18798828 C-1.66551109 8.66897781 -1.66551109 8.66897781 -3 6 C-2.01 6 -1.02 6 0 6 C0 4.02 0 2.04 0 0 Z " transform="translate(407,460)" style="fill: #881913;"/><path d="M0 0 C8.05580077 6.18170823 14.16788559 15.22651383 15.96484375 25.29296875 C17.54630401 38.78954054 15.02286514 50.47710159 6.51171875 61.28515625 C-1.53472317 69.97086644 -11.55967019 74.69732927 -23.33203125 75.24853516 C-34.74405382 75.44488629 -43.27336833 72.97549675 -52.125 65.4765625 C-60.69983011 57.16324406 -66.00285498 47.90052213 -66.27001953 35.7890625 C-66.15670275 22.34582238 -63.28240716 13.14560281 -53.7109375 3.21484375 C-38.26560066 -9.7649446 -16.96982877 -11.04126679 0 0 Z " transform="translate(339.75,316.2734375)" style="fill: #FEFCFC;"/><path d="M0 0 C7.01756787 5.8585866 12.69276353 14.77192023 14.1875 23.875 C15.18517408 37.42088467 13.49032264 48.74994597 5.1875 59.875 C-2.26537524 68.31863445 -12.26360946 73.10811423 -23.46875 74.11328125 C-34.47716332 74.40058874 -44.34441049 72.08354858 -52.81640625 64.79296875 C-61.26342696 56.67655551 -67.02347724 48.27900988 -68.1484375 36.296875 C-68.28824494 23.1549755 -65.09055211 12.65498674 -56 2.9375 C-40.18624903 -11.85600897 -17.38733286 -12.10695157 0 0 Z " transform="translate(258.8125,626.125)" style="fill: #FEFCFC;"/><path d="M0 0 C7.36526964 5.22050312 13.23480757 11.93175652 15 21 C16.15221593 31.00781837 13.46374277 40.01051941 7.1875 47.9375 C0.87877468 54.5697497 -6.73005634 57.97379838 -15.875 58.3125 C-26.26674679 58.07560608 -34.2784833 53.36010251 -41.390625 45.98046875 C-45.99424201 40.31533811 -48.27858174 33.27794784 -48 26 C-46.61661559 16.06357543 -43.04154994 7.97068246 -35.125 1.625 C-24.43308125 -5.62375847 -11.37465067 -6.71880364 0 0 Z " transform="translate(245,88)" style="fill: #FDFCFB;"/><path d="M0 0 C11.55 0 23.1 0 35 0 C35.495 6.435 35.495 6.435 36 13 C34 11 34 11 34 1 C24.1 1.33 14.2 1.66 4 2 C3.01 4.97 2.02 7.94 1 11 C0.67 11 0.34 11 0 11 C0 7.37 0 3.74 0 0 Z " transform="translate(568,331)" style="fill: #F0BEBC;"/><path d="M0 0 C0 4.31618166 -2.13270348 5.92789659 -5 9 C-5.66 9 -6.32 9 -7 9 C-7.1546875 9.86625 -7.1546875 9.86625 -7.3125 10.75 C-8.11536971 13.37757361 -9.17034898 14.95923541 -11 17 C-11.99 17.33 -12.98 17.66 -14 18 C-14.33 18.99 -14.66 19.98 -15 21 C-15.99 20.67 -16.98 20.34 -18 20 C-12.49706701 12.77547904 -6.53935341 6.29814775 0 0 Z " transform="translate(282,298)" style="fill: #802422;"/><path d="M0 0 C7.36960385 4.37903997 13.12284045 9.79156005 19 16 C18.34 16.66 17.68 17.32 17 18 C16.67 17.01 16.34 16.02 16 15 C15.01 14.67 14.02 14.34 13 14 C12.360625 13.34 11.72125 12.68 11.0625 12 C8.94325285 9.94497246 7.86252086 9.40893155 5 9 C5 8.34 5 7.68 5 7 C4.34 6.67 3.68 6.34 3 6 C3 5.01 3 4.02 3 3 C2.01 2.67 1.02 2.34 0 2 C0 1.34 0 0.68 0 0 Z " transform="translate(453,101)" style="fill: #812824;"/><path d="M0 0 C-1.66289062 0.58007812 -1.66289062 0.58007812 -3.359375 1.171875 C-4.82312912 1.6973252 -6.28665919 2.22339985 -7.75 2.75 C-8.47960937 3.00265625 -9.20921875 3.2553125 -9.9609375 3.515625 C-14.11827224 5.02738309 -17.27820987 6.33391533 -20 10 C-20.68116938 12.10938065 -20.68116938 12.10938065 -20.75 14.25 C-20.8325 15.4875 -20.915 16.725 -21 18 C-21.33 18 -21.66 18 -22 18 C-22.0272415 16.58344207 -22.04650467 15.16672955 -22.0625 13.75 C-22.07410156 12.96109375 -22.08570313 12.1721875 -22.09765625 11.359375 C-22.00130042 9.03141815 -21.81626259 7.18291938 -21 5 C-17.62779599 2.751864 -14.36195252 1.83131986 -10.5 0.8125 C-9.82324219 0.62236328 -9.14648438 0.43222656 -8.44921875 0.23632812 C-5.10039119 -0.65867411 -3.35701595 -1.11900532 0 0 Z " transform="translate(171,447)" style="fill: #893230;"/><path d="M0 0 C-0.1875 1.8125 -0.1875 1.8125 -1 4 C-3.3125 5.5625 -3.3125 5.5625 -6 7 C-6.99 7.86625 -6.99 7.86625 -8 8.75 C-10 10 -10 10 -12.75 9.6875 C-13.4925 9.460625 -14.235 9.23375 -15 9 C-15 8.34 -15 7.68 -15 7 C-14.14535156 6.57847656 -13.29070312 6.15695312 -12.41015625 5.72265625 C-11.30542969 5.17480469 -10.20070313 4.62695312 -9.0625 4.0625 C-7.96035156 3.51722656 -6.85820312 2.97195313 -5.72265625 2.41015625 C-1.06925208 0 -1.06925208 0 0 0 Z " transform="translate(342,382)" style="fill: #87302C;"/><path d="M0 0 C0.66 0.845625 1.32 1.69125 2 2.5625 C4.86567053 5.4344765 4.86567053 5.4344765 8.9375 4.875 C10.29601873 4.60432739 11.65060853 4.31301673 13 4 C14.155 3.814375 15.31 3.62875 16.5 3.4375 C17.325 3.293125 18.15 3.14875 19 3 C19 3.66 19 4.32 19 5 C15.34242447 6.67638878 12.51532824 7.24953457 8.5 7.1875 C7.5821875 7.18105469 6.664375 7.17460937 5.71875 7.16796875 C3.06134313 7.00378988 0.59373754 6.58734999 -2 6 C-2 4.68 -2 3.36 -2 2 C-1.34 2 -0.68 2 0 2 C0 1.34 0 0.68 0 0 Z " transform="translate(311,272)" style="fill: #812220;"/><path d="M0 0 C2.31 0.66 4.62 1.32 7 2 C3.53005564 5.9036874 -0.55224006 8.36588975 -5 11 C-5 8 -5 8 -3 6 C-2.3574765 3.93125966 -2.3574765 3.93125966 -2 2 C-1.34 2 -0.68 2 0 2 C0 1.34 0 0.68 0 0 Z " transform="translate(700,377)" style="fill: #862623;"/><path d="M0 0 C0.66 1.32 1.32 2.64 2 4 C1.071875 4.12375 1.071875 4.12375 0.125 4.25 C-2.12684592 4.79252374 -2.12684592 4.79252374 -3.0625 6.75 C-3.371875 7.4925 -3.68125 8.235 -4 9 C-6.45447088 13.7973749 -6.45447088 13.7973749 -9.1875 14.8125 C-9.785625 14.874375 -10.38375 14.93625 -11 15 C-8.0173737 9.2733575 -4.37705843 4.73361656 0 0 Z " transform="translate(570,240)" style="fill: #842623;"/><path d="M0 0 C1.32 0.33 2.64 0.66 4 1 C3.67 2.65 3.34 4.3 3 6 C2.2575 6.144375 1.515 6.28875 0.75 6.4375 C-1.52027739 6.90187492 -3.75759479 7.41863569 -6 8 C-6.33 7.01 -6.66 6.02 -7 5 C-6.030625 4.54625 -5.06125 4.0925 -4.0625 3.625 C-0.92920418 2.34213779 -0.92920418 2.34213779 0 0 Z " transform="translate(250,399)" style="fill: #861F1D;"/><path d="M0 0 C3.30616284 3.80208727 7 9.83581485 7 15 C6.34 15 5.68 15 5 15 C5 14.01 5 13.02 5 12 C3.68 12 2.36 12 1 12 C0.45533613 7.915021 0 4.1274515 0 0 Z " transform="translate(284,210)" style="fill: #882926;"/><path d="M0 0 C1.07310858 3.27185553 0.89263102 5.42947592 0.0625 8.75 C-0.13214844 9.54921875 -0.32679688 10.3484375 -0.52734375 11.171875 C-0.68332031 11.77515625 -0.83929688 12.3784375 -1 13 C-1.33 13 -1.66 13 -2 13 C-2.66 14.98 -3.32 16.96 -4 19 C-4.66 18.67 -5.32 18.34 -6 18 C-4.23536928 11.89262558 -2.30442525 5.92566493 0 0 Z " transform="translate(272,563)" style="fill: #862F2D;"/><path d="M0 0 C0 3.7185142 -0.85912168 4.31804606 -3.3125 7 C-3.92738281 7.680625 -4.54226562 8.36125 -5.17578125 9.0625 C-6.75544728 10.74026092 -8.35810926 12.38336911 -10 14 C-10.66 13.34 -11.32 12.68 -12 12 C-8.04 8.04 -4.08 4.08 0 0 Z " transform="translate(197,603)" style="fill: #802523;"/><path d="M0 0 C0.33 0.99 0.66 1.98 1 3 C-0.24676853 4.27400377 -1.4975648 5.54406654 -2.75 6.8125 C-3.44609375 7.52019531 -4.1421875 8.22789062 -4.859375 8.95703125 C-6.81428645 10.82275879 -8.80338553 12.43169642 -11 14 C-11.66 13.67 -12.32 13.34 -13 13 C-8.71 8.71 -4.42 4.42 0 0 Z " transform="translate(762,411)" style="fill: #FEF0ED;"/><path d="M0 0 C1.23581283 4.94325132 1.20930104 7.47093287 -1 12 C-3.125 14.3125 -3.125 14.3125 -5 16 C-5.66 15.67 -6.32 15.34 -7 15 C-4.69 10.05 -2.38 5.1 0 0 Z " transform="translate(756,367)" style="fill: #852A28;"/><path d="M0 0 C3.62484999 -0.08681476 7.24943443 -0.14032721 10.875 -0.1875 C12.42380859 -0.22520508 12.42380859 -0.22520508 14.00390625 -0.26367188 C14.99003906 -0.27333984 15.97617188 -0.28300781 16.9921875 -0.29296875 C17.90339355 -0.3086792 18.81459961 -0.32438965 19.75341797 -0.34057617 C20.49479004 -0.22818604 21.23616211 -0.1157959 22 0 C22.66 0.99 23.32 1.98 24 3 C23.01 3.495 23.01 3.495 22 4 C21.13117188 3.69320312 20.26234375 3.38640625 19.3671875 3.0703125 C15.53541742 1.85232526 12.09256487 1.77504197 8.125 1.875 C7.09246094 1.88853516 7.09246094 1.88853516 6.0390625 1.90234375 C4.35922162 1.92567487 2.67956254 1.96153674 1 2 C0.67 1.34 0.34 0.68 0 0 Z " transform="translate(219,83)" style="fill: #923F3F;"/><path d="M0 0 C4.29 2.31 8.58 4.62 13 7 C9.52674819 8.1577506 6.63932552 8.06866652 3 8 C0 2.25 0 2.25 0 0 Z " transform="translate(394,286)" style="fill: #7F2420;"/><path d="M0 0 C0 1.98 0 3.96 0 6 C-0.61875 6.28875 -1.2375 6.5775 -1.875 6.875 C-4.13325765 7.93720042 -4.13325765 7.93720042 -6 10 C-6.99 9.34 -7.98 8.68 -9 8 C-7.6905332 6.66368764 -6.37734515 5.33102075 -5.0625 4 C-3.96615234 2.88625 -3.96615234 2.88625 -2.84765625 1.75 C-1 0 -1 0 0 0 Z " transform="translate(580,231)" style="fill: #80211B;"/><path d="M0 0 C0.66 0.66 1.32 1.32 2 2 C-1.66666667 5.66666667 -5.33333333 9.33333333 -9 13 C-9 9.26130751 -8.09514308 8.63449295 -5.625 5.9375 C-4.99851562 5.24527344 -4.37203125 4.55304688 -3.7265625 3.83984375 C-2.50602933 2.53923035 -1.26120903 1.26120903 0 0 Z " transform="translate(284,163)" style="fill: #FBE6E5;"/><path d="M0 0 C0 0.99 0 1.98 0 3 C-0.99 3.495 -0.99 3.495 -2 4 C-2.65555119 6.52733235 -2.65555119 6.52733235 -3 9 C-3.7425 8.95875 -4.485 8.9175 -5.25 8.875 C-8.08758952 9.00398134 -9.58773938 9.57051222 -12 11 C-8.42270128 6.33867137 -4.89132699 3.26088466 0 0 Z " transform="translate(377,101)" style="fill: #832724;"/><path d="M0 0 C0 0.99 0 1.98 0 3 C-0.99 3.33 -1.98 3.66 -3 4 C-3.391875 4.639375 -3.78375 5.27875 -4.1875 5.9375 C-6.96192507 9.09460439 -9.92997637 9.19933961 -14 10 C-9.93265026 5.40783094 -5.43614072 2.7832093 0 0 Z " transform="translate(203,59)" style="fill: #812B27;"/><path d="M0 0 C3.48670834 1.1094072 6.77484237 2.26337666 10 4 C9.67 4.66 9.34 5.32 9 6 C8.2575 5.649375 7.515 5.29875 6.75 4.9375 C3.80084393 3.93210589 2.84541832 3.95667995 0 5 C-0.99 5.33 -1.98 5.66 -3 6 C-3.33 5.01 -3.66 4.02 -4 3 C-3.01 2.67 -2.02 2.34 -1 2 C-0.67 1.34 -0.34 0.68 0 0 Z " transform="translate(256,57)" style="fill: #85221F;"/><path d="M0 0 C-2.97 2.97 -5.94 5.94 -9 9 C-9.66 7.68 -10.32 6.36 -11 5 C-7.25 2 -7.25 2 -5 2 C-5 1.34 -5 0.68 -5 0 C-3 -1 -3 -1 0 0 Z " transform="translate(300,705)" style="fill: #882827;"/><path d="M0 0 C0.70125 0.804375 1.4025 1.60875 2.125 2.4375 C5.26291593 5.23433811 6.88758763 5.71308751 11 6 C11 6.33 11 6.66 11 7 C7.37 7.33 3.74 7.66 0 8 C-1.09658936 4.71023192 -0.79953138 3.28696233 0 0 Z " transform="translate(437,494)" style="fill: #81211D;"/><path d="M0 0 C2.6429866 0.98168074 4.9856661 1.99094701 7.375 3.5 C10.48238445 5.27564826 13.54363613 6.11896607 17 7 C16.01 8.485 16.01 8.485 15 10 C9.12975632 7.32134512 4.23353847 4.93912821 0 0 Z " transform="translate(626,380)" style="fill: #873230;"/><path d="M0 0 C2.73886155 0.02559684 4.40257532 0.30085844 7.0625 1.1875 C7.0625 1.8475 7.0625 2.5075 7.0625 3.1875 C4.0925 2.8575 1.1225 2.5275 -1.9375 2.1875 C-2.2675 3.1775 -2.5975 4.1675 -2.9375 5.1875 C-3.5975 5.1875 -4.2575 5.1875 -4.9375 5.1875 C-5.2675 4.1975 -5.5975 3.2075 -5.9375 2.1875 C-3.9375 0.1875 -3.9375 0.1875 0 0 Z " transform="translate(469.9375,498.8125)" style="fill: #81231F;"/><path d="M0 0 C6.34895833 0.47916667 6.34895833 0.47916667 8.875 2.5 C10.54654411 6.21454246 10.74998348 9.96525066 11 14 C10.01 14.33 9.02 14.66 8 15 C8.0928125 14.40832031 8.185625 13.81664062 8.28125 13.20703125 C8.51890589 10.60554802 8.58202288 8.55490925 8 6 C6.04309336 4.15896284 4.14745181 3.0737259 1.75 1.875 C1.1725 1.58625 0.595 1.2975 0 1 C0 0.67 0 0.34 0 0 Z " transform="translate(298,459)" style="fill: #802823;"/><path d="M0 0 C-3.22808964 2.15205976 -3.89606413 2.19328822 -7.5625 2 C-9.88836217 1.83289965 -9.88836217 1.83289965 -12 2 C-12.66 2.66 -13.32 3.32 -14 4 C-16.125 3.625 -16.125 3.625 -18 3 C-12.67541347 -0.95049969 -6.32383863 -1.89284966 0 0 Z " transform="translate(467,364)" style="fill: #F8E5DF;"/><path d="M0 0 C2.54344286 2.27301934 3.87616437 4.45086481 5.25 7.5625 C5.60578125 8.34753906 5.9615625 9.13257813 6.328125 9.94140625 C7 12 7 12 6 14 C4 12.375 4 12.375 2 10 C1.75 6.75 1.75 6.75 2 4 C1.34 4 0.68 4 0 4 C0 2.68 0 1.36 0 0 Z " transform="translate(777,263)" style="fill: #842D2A;"/><path d="M0 0 C1.48285242 0.95262034 2.96118201 1.91228405 4.4375 2.875 C5.67306641 3.67550781 5.67306641 3.67550781 6.93359375 4.4921875 C9 6 9 6 10 8 C9.34 8 8.68 8 8 8 C7.67 8.66 7.34 9.32 7 10 C2.78577758 7.11658466 1.23924145 4.95696581 0 0 Z " transform="translate(278,595)" style="fill: #862726;"/><path d="M0 0 C0.66 1.32 1.32 2.64 2 4 C2.86735992 5.58753149 3.74251924 7.1708239 4.625 8.75 C5.07101562 9.54921875 5.51703125 10.3484375 5.9765625 11.171875 C6.31429688 11.77515625 6.65203125 12.3784375 7 13 C6.34 13 5.68 13 5 13 C4.67 12.34 4.34 11.68 4 11 C2.68 11 1.36 11 0 11 C0 7.37 0 3.74 0 0 Z " transform="translate(411,451)" style="fill: #882B2A;"/><path d="M0 0 C0.66 0.33 1.32 0.66 2 1 C-2.08648075 6.29728986 -6.06781282 10.77966982 -12 14 C-10.48744324 10.14985552 -8.19769213 8.52840773 -5 6 C-3.24207758 4.06055298 -1.63102321 2.05042917 0 0 Z " transform="translate(425,436)" style="fill: #F6E2E0;"/><path d="M0 0 C0.8971875 0.309375 0.8971875 0.309375 1.8125 0.625 C-2.3564219 4.27280666 -7.63553736 6.625 -13.1875 6.625 C-11.57402099 3.39804197 -8.42043656 2.96276685 -5.1875 1.625 C-2.1875 -0.375 -2.1875 -0.375 0 0 Z " transform="translate(248.1875,400.375)" style="fill: #F9EAE3;"/><path d="M0 0 C0.33 0 0.66 0 1 0 C0.85805236 2.06277107 0.71127784 4.12521031 0.5625 6.1875 C0.48128906 7.33605469 0.40007813 8.48460937 0.31640625 9.66796875 C0.04596188 12.51598171 -0.37521747 15.21210482 -1 18 C-1.33 18 -1.66 18 -2 18 C-2.054348 15.9377952 -2.09294961 13.87517184 -2.125 11.8125 C-2.14820313 10.66394531 -2.17140625 9.51539063 -2.1953125 8.33203125 C-2.00484152 5.08259628 -1.39360127 2.91339479 0 0 Z " transform="translate(793,332)" style="fill: #883434;"/><path d="M0 0 C0.33 0.99 0.66 1.98 1 3 C-4.65146223 4.17122859 -10.27601207 5.25339288 -16 6 C-13.12921701 4.08614468 -10.66588344 3.03567048 -7.4375 1.875 C-6.46683594 1.52179688 -5.49617187 1.16859375 -4.49609375 0.8046875 C-2 0 -2 0 0 0 Z " transform="translate(210,417)" style="fill: #893331;"/><path d="M0 0 C3.53600465 1.91135386 5.78972846 3.62642766 8 7 C4.94736336 7.98120464 3.05263664 7.98120464 0 7 C0.99 6.67 1.98 6.34 3 6 C2.2575 5.071875 2.2575 5.071875 1.5 4.125 C0 2 0 2 0 0 Z " transform="translate(408,294)" style="fill: #832621;"/><path d="M0 0 C0.66 0.33 1.32 0.66 2 1 C-2.71570796 5.94026549 -2.71570796 5.94026549 -6.6875 6.125 C-7.8321875 6.063125 -7.8321875 6.063125 -9 6 C-9 5.34 -9 4.68 -9 4 C-7.54618103 3.30300448 -6.08677047 2.61766134 -4.625 1.9375 C-3.40683594 1.36322266 -3.40683594 1.36322266 -2.1640625 0.77734375 C-1.44992187 0.52082031 -0.73578125 0.26429687 0 0 Z " transform="translate(392,94)" style="fill: #822924;"/><path d="M0 0 C1.65 0 3.3 0 5 0 C3.66666667 1.33333333 2.33333333 2.66666667 1 4 C0.13375 4.886875 -0.7325 5.77375 -1.625 6.6875 C-4 9 -4 9 -6 10 C-6 8.68 -6 7.36 -6 6 C-5.34 6 -4.68 6 -4 6 C-3.34 4.68 -2.68 3.36 -2 2 C-1.34 2.33 -0.68 2.66 0 3 C0 2.01 0 1.02 0 0 Z " transform="translate(209,87)" style="fill: #812827;"/><path d="M0 0 C1.65 0 3.3 0 5 0 C5.2475 0.598125 5.495 1.19625 5.75 1.8125 C7.16370012 4.28647521 8.65055383 5.43370255 11 7 C10.67 7.66 10.34 8.32 10 9 C8.33043913 7.69118353 6.66441696 6.37785174 5 5.0625 C4.071875 4.33160156 3.14375 3.60070312 2.1875 2.84765625 C1.465625 2.23792969 0.74375 1.62820313 0 1 C0 0.67 0 0.34 0 0 Z " transform="translate(277,444)" style="fill: #883432;"/><path d="M0 0 C-1.125 2 -1.125 2 -3 4 C-6.1875 4.25 -6.1875 4.25 -9 4 C-9.33 3.34 -9.66 2.68 -10 2 C-8.71211992 1.46987262 -7.41953322 0.9511671 -6.125 0.4375 C-5.40570313 0.14746094 -4.68640625 -0.14257812 -3.9453125 -0.44140625 C-2 -1 -2 -1 0 0 Z " transform="translate(194,424)" style="fill: #872824;"/><path d="M0 0 C1.47193312 2.94386623 0.84936173 5.37390036 0.5625 8.625 C0.40974609 10.40777344 0.40974609 10.40777344 0.25390625 12.2265625 C0.12822266 13.59941406 0.12822266 13.59941406 0 15 C-0.66 15 -1.32 15 -2 15 C-3.09644404 9.05542387 -3.41029848 5.32006564 0 0 Z " transform="translate(198,106)" style="fill: #923F3E;"/><path d="M0 0 C0.66 0 1.32 0 2 0 C1.54857225 1.77260631 1.08859477 3.5430368 0.625 5.3125 C0.36976563 6.29863281 0.11453125 7.28476562 -0.1484375 8.30078125 C-1 11 -1 11 -3 14 C-4.46726798 10.18510326 -3.43336419 7.70988378 -2 4 C-1.34 4 -0.68 4 0 4 C0 2.68 0 1.36 0 0 Z " transform="translate(315,482)" style="fill: #812B26;"/><path d="M0 0 C4 2 4 2 4.828125 4.3828125 C4.96734375 5.28773438 5.1065625 6.19265625 5.25 7.125 C5.39953125 8.03507812 5.5490625 8.94515625 5.703125 9.8828125 C5.80109375 10.58148438 5.8990625 11.28015625 6 12 C5.34 12 4.68 12 4 12 C2.68 8.04 1.36 4.08 0 0 Z " transform="translate(544,367)" style="fill: #832724;"/><path d="M0 0 C3.28788824 3.11016455 5.83735988 6.01618925 8 10 C5.83125748 9.49396008 4.00032373 9.00016187 2 8 C1.60828247 6.34608154 1.27942455 4.67654729 1 3 C0.67 2.01 0.34 1.02 0 0 Z " transform="translate(424,310)" style="fill: #832A27;"/><path d="M0 0 C0.99 0.66 1.98 1.32 3 2 C2.6875 4.375 2.6875 4.375 2 7 C0.515 7.99 0.515 7.99 -1 9 C-2.60031344 5.79937313 -1.03173691 3.27728194 0 0 Z " transform="translate(418,527)" style="fill: #882322;"/><path d="M0 0 C0 0.66 0 1.32 0 2 C-3.82942948 4.90108294 -7.27536912 5.53680089 -12 6 C-12 5.34 -12 4.68 -12 4 C-10.3767313 3.3291288 -8.75132422 2.66342971 -7.125 2 C-6.22007812 1.62875 -5.31515625 1.2575 -4.3828125 0.875 C-2 0 -2 0 0 0 Z " transform="translate(183,427)" style="fill: #842A29;"/><path d="M0 0 C0.33 0 0.66 0 1 0 C1.50435694 1.9363704 2.00333874 3.87414146 2.5 5.8125 C2.7784375 6.89144531 3.056875 7.97039062 3.34375 9.08203125 C4 12 4 12 4 15 C3.34 15 2.68 15 2 15 C0.53329887 9.77487721 -0.22577402 5.4185766 0 0 Z " transform="translate(568,344)" style="fill: #863430;"/><path d="M0 0 C0.33 1.32 0.66 2.64 1 4 C0.34 4 -0.32 4 -1 4 C-1.144375 4.763125 -1.28875 5.52625 -1.4375 6.3125 C-2 9 -2 9 -3 12 C-3.99 12.33 -4.98 12.66 -6 13 C-4.58707905 8.1725201 -2.57025846 4.2837641 0 0 Z " transform="translate(262,321)" style="fill: #832E29;"/><path d="M0 0 C4.62 0 9.24 0 14 0 C11.23465355 1.8435643 10.12936982 2.36798724 7 2.8125 C6.319375 2.92207031 5.63875 3.03164063 4.9375 3.14453125 C3 3 3 3 0 0 Z " transform="translate(313,275)" style="fill: #F2DBD6;"/><path d="M0 0 C2.31 0.66 4.62 1.32 7 2 C7.33 4.31 7.66 6.62 8 9 C4.36905358 6.35039045 2.10148204 3.98175544 0 0 Z " transform="translate(184,700)" style="fill: #802722;"/><path d="M0 0 C0.66 0 1.32 0 2 0 C1.21824485 4.84688192 -0.39844278 9.3766367 -2 14 C-2.33 14 -2.66 14 -3 14 C-2.48594831 9.03083364 -1.76615118 4.70973649 0 0 Z " transform="translate(301,520)" style="fill: #822D29;"/><path d="M0 0 C0.66 0 1.32 0 2 0 C1.64987213 2.59094622 1.26229035 4.5774211 -0.125 6.8125 C-3.00868162 8.63883169 -5.67745793 8.18806842 -9 8 C-9 7.67 -9 7.34 -9 7 C-7.6078125 6.6596875 -7.6078125 6.6596875 -6.1875 6.3125 C-2.45530287 4.77571295 -1.8275845 3.47241055 0 0 Z " transform="translate(537,332)" style="fill: #863232;"/><path d="M0 0 C2.22825644 2.22825644 2.69239369 3.65761628 3.625 6.625 C3.88539063 7.44226563 4.14578125 8.25953125 4.4140625 9.1015625 C4.70410156 10.04128906 4.70410156 10.04128906 5 11 C3.68 11 2.36 11 1 11 C0.4254048 7.26513121 0 3.78706732 0 0 Z " transform="translate(299,244)" style="fill: #892E2D;"/><path d="M0 0 C1.67542976 0.28604898 3.34385343 0.61781233 5 1 C3.63016497 4.16115776 3.0109362 4.9927092 0 7 C-0.38133299 5.0085944 -0.71325582 3.00720923 -1 1 C-0.67 0.67 -0.34 0.34 0 0 Z " transform="translate(282,158)" style="fill: #872520;"/><path d="M0 0 C4.455 1.98 4.455 1.98 9 4 C8.67 4.66 8.34 5.32 8 6 C7.01 6 6.02 6 5 6 C5 5.34 5 4.68 5 4 C4.01 4.33 3.02 4.66 2 5 C0 3 0 3 0 0 Z " transform="translate(616,416)" style="fill: #842626;"/><path d="M0 0 C0.66 1.32 1.32 2.64 2 4 C1.34 4 0.68 4 0 4 C0.2475 4.70125 0.495 5.4025 0.75 6.125 C1.09959252 10.14531402 -0.60817813 11.88338362 -3 15 C-4.57156655 11.8568669 -3.11705576 9.634536 -2.0625 6.375 C-1.68222656 5.18648438 -1.30195312 3.99796875 -0.91015625 2.7734375 C-0.60980469 1.85820312 -0.30945313 0.94296875 0 0 Z " transform="translate(789,359)" style="fill: #F3E0D8;"/><path d="M0 0 C0.33 0 0.66 0 1 0 C1.03738281 0.59167969 1.07476562 1.18335938 1.11328125 1.79296875 C1.52169369 6.70192606 2.21816624 9.82724937 5 14 C4.67 14.66 4.34 15.32 4 16 C1.7522025 13.94766315 0.9977758 12.99332739 0 10 C-0.06802967 8.27204648 -0.08495645 6.54164635 -0.0625 4.8125 C-0.05347656 3.91144531 -0.04445313 3.01039063 -0.03515625 2.08203125 C-0.02355469 1.39496094 -0.01195312 0.70789063 0 0 Z " transform="translate(391,271)" style="fill: #F7E1D9;"/><path d="M0 0 C2.9512645 1.47563225 3.06923915 3.50079352 4.125 6.5625 C4.47820312 7.57441406 4.83140625 8.58632812 5.1953125 9.62890625 C5.46085937 10.41136719 5.72640625 11.19382813 6 12 C5.34 12 4.68 12 4 12 C4 11.01 4 10.02 4 9 C3.01 8.67 2.02 8.34 1 8 C0.67 5.36 0.34 2.72 0 0 Z " transform="translate(293,231)" style="fill: #852D2B;"/><path d="M0 0 C1.98 0.66 3.96 1.32 6 2 C5.34 3.65 4.68 5.3 4 7 C1 5 1 5 0.3125 2.375 C0.209375 1.59125 0.10625 0.8075 0 0 Z " transform="translate(715,208)" style="fill: #872623;"/><path d="M0 0 C-1.74310252 2.11007147 -2.86337925 2.95559826 -5.5 3.8125 C-8 4 -8 4 -11 2 C-7.17010894 0.19769832 -4.21878192 -0.19622241 0 0 Z " transform="translate(219,55)" style="fill: #832723;"/><path d="M0 0 C3.63094642 2.64960955 5.89851796 5.01824456 8 9 C7.401875 8.690625 6.80375 8.38125 6.1875 8.0625 C3.91043228 6.89790296 3.91043228 6.89790296 1 6 C0.67 4.02 0.34 2.04 0 0 Z " transform="translate(294,608)" style="fill: #8B3A39;"/><path d="M0 0 C-0.33 0.99 -0.66 1.98 -1 3 C-3.88211302 3.96070434 -5.69850044 4.10581883 -8.6875 4.0625 C-9.89986328 4.04896484 -9.89986328 4.04896484 -11.13671875 4.03515625 C-12.05904297 4.01775391 -12.05904297 4.01775391 -13 4 C-13 3.67 -13 3.34 -13 3 C-11.01432292 2.51171875 -9.02864583 2.0234375 -7.04296875 1.53515625 C-1.18248175 0 -1.18248175 0 0 0 Z " transform="translate(157,437)" style="fill: #812621;"/><path d="M0 0 C-1.98 0.99 -1.98 0.99 -4 2 C-4 2.66 -4 3.32 -4 4 C-4.99 4.33 -5.98 4.66 -7 5 C-7.99 4.01 -8.98 3.02 -10 2 C-8.71211992 1.46987262 -7.41953322 0.9511671 -6.125 0.4375 C-5.40570313 0.14746094 -4.68640625 -0.14257812 -3.9453125 -0.44140625 C-2 -1 -2 -1 0 0 Z " transform="translate(234,409)" style="fill: #832C27;"/><path d="M0 0 C1 4 1 4 1 8 C-0.5 10.25 -0.5 10.25 -2 12 C-2.66 11.67 -3.32 11.34 -4 11 C-2.68 7.37 -1.36 3.74 0 0 Z " transform="translate(381,260)" style="fill: #893431;"/><path d="M0 0 C1.98 0.495 1.98 0.495 4 1 C3.25 5.75 3.25 5.75 1 8 C0.26919734 6.02253397 -0.39421747 4.01927511 -1 2 C-0.67 1.34 -0.34 0.68 0 0 Z " transform="translate(276,580)" style="fill: #81221E;"/><path d="M0 0 C3.98069267 2.87494471 6.43571997 5.82117329 9 10 C4.71095765 8.4114658 2.67654474 5.56872632 0 2 C0 1.34 0 0.68 0 0 Z " transform="translate(128,421)" style="fill: #84312E;"/><path d="M0 0 C3.28788824 3.11016455 5.83735988 6.01618925 8 10 C4.31274141 9.00344362 3.20648538 8.3417689 1.1875 5 C0 2 0 2 0 0 Z " transform="translate(584,386)" style="fill: #883131;"/><path d="M0 0 C1.21386936 3.64160808 0.6674695 4.33165469 -0.9375 7.6875 C-1.31777344 8.49574219 -1.69804688 9.30398438 -2.08984375 10.13671875 C-2.39019531 10.75160156 -2.69054687 11.36648438 -3 12 C-3.66 12 -4.32 12 -5 12 C-3.68938409 7.76570244 -2.05643741 3.92592596 0 0 Z " transform="translate(552,266)" style="fill: #84302C;"/><path d="M0 0 C3.465 1.98 3.465 1.98 7 4 C5.71034824 5.37562854 4.37310707 6.70766393 3 8 C2.34 8 1.68 8 1 8 C1.20625 7.4225 1.4125 6.845 1.625 6.25 C2.08661261 3.48032433 1.42944945 2.35438733 0 0 Z " transform="translate(728,214)" style="fill: #872726;"/><path d="M0 0 C1.98 0.66 3.96 1.32 6 2 C5.67 3.65 5.34 5.3 5 7 C4.34 7 3.68 7 3 7 C2.01 4.69 1.02 2.38 0 0 Z " transform="translate(350,192)" style="fill: #811E1C;"/><path d="M0 0 C0.66 0.33 1.32 0.66 2 1 C0.35 3.97 -1.3 6.94 -3 10 C-3.33 8.68 -3.66 7.36 -4 6 C-3.34 6 -2.68 6 -2 6 C-1.855625 5.195625 -1.71125 4.39125 -1.5625 3.5625 C-1 1 -1 1 0 0 Z " transform="translate(292,148)" style="fill: #852E2E;"/><path d="M0 0 C1.24028683 4.51953004 0.77524649 6.63556617 -1.5625 10.75 C-2.036875 11.4925 -2.51125 12.235 -3 13 C-4 11 -4 11 -3.22265625 8.3984375 C-2.83980469 7.40070312 -2.45695312 6.40296875 -2.0625 5.375 C-1.68222656 4.37210938 -1.30195313 3.36921875 -0.91015625 2.3359375 C-0.60980469 1.56507813 -0.30945313 0.79421875 0 0 Z " transform="translate(292,509)" style="fill: #84302C;"/><path d="M0 0 C0.6875 1.8125 0.6875 1.8125 1 4 C-0.25 5.75 -0.25 5.75 -2 7 C-2.99 7 -3.98 7 -5 7 C-3.70700306 4.11562221 -2.34058637 2.12780579 0 0 Z " transform="translate(735,400)" style="fill: #801F1E;"/><path d="M0 0 C-1.6875 2.0625 -1.6875 2.0625 -4 4 C-6.75 3.75 -6.75 3.75 -9 3 C-9 2.34 -9 1.68 -9 1 C-5.8035914 -0.06546953 -3.34252724 -0.07427838 0 0 Z " transform="translate(336,388)" style="fill: #852422;"/><path d="M0 0 C0.99 0.33 1.98 0.66 3 1 C0.42215154 3.64752004 -1.91648098 5.94432065 -5 8 C-5 7.01 -5 6.02 -5 5 C-4.34 5 -3.68 5 -3 5 C-3 4.01 -3 3.02 -3 2 C-2.01 1.34 -1.02 0.68 0 0 Z " transform="translate(289,314)" style="fill: #802824;"/><path d="M0 0 C0.6875 1.625 0.6875 1.625 1 4 C-0.4375 7.25 -0.4375 7.25 -2 10 C-2.66 10 -3.32 10 -4 10 C-2.99806563 6.20696275 -2.18975773 3.28463659 0 0 Z " transform="translate(352,128)" style="fill: #812A26;"/><path d="M0 0 C2.09782787 2.09782787 2.6509396 3.3799207 3.625 6.125 C3.88539063 6.84945312 4.14578125 7.57390625 4.4140625 8.3203125 C4.70410156 9.15175781 4.70410156 9.15175781 5 10 C4.01 10.495 4.01 10.495 3 11 C2.67 10.01 2.34 9.02 2 8 C1.34 7.67 0.68 7.34 0 7 C0 4.69 0 2.38 0 0 Z " transform="translate(197,121)" style="fill: #832D2B;"/><path d="M0 0 C2.6486859 3.19668988 4.93992341 6.39486597 7 10 C3.2502319 8.7500773 2.18475235 7.23946038 0 4 C0 2.68 0 1.36 0 0 Z " transform="translate(418,464)" style="fill: #8C3734;"/><path d="M0 0 C-2 2 -2 2 -5.625 2.125 C-6.73875 2.08375 -7.8525 2.0425 -9 2 C-9 1.34 -9 0.68 -9 0 C-5.62182575 -0.84454356 -3.32534757 -1.10844919 0 0 Z " transform="translate(70,403)" style="fill: #8E3934;"/><path d="M0 0 C0.99 0.66 1.98 1.32 3 2 C1.69593116 4.01920337 0.36176581 6.01924973 -1 8 C-1.33 8 -1.66 8 -2 8 C-1.125 1.125 -1.125 1.125 0 0 Z " transform="translate(718,361)" style="fill: #872C2C;"/><path d="M0 0 C1.40173705 4.20521114 -0.06938159 6.13876318 -2 10 C-2.99 10.495 -2.99 10.495 -4 11 C-5 8 -5 8 -4.00390625 5.95703125 C-3.52824219 5.24933594 -3.05257812 4.54164063 -2.5625 3.8125 C-2.08941406 3.09707031 -1.61632812 2.38164062 -1.12890625 1.64453125 C-0.75636719 1.10183594 -0.38382812 0.55914062 0 0 Z " transform="translate(257,126)" style="fill: #89332F;"/><path d="M0 0 C2.31 0 4.62 0 7 0 C7 1.65 7 3.3 7 5 C4.69 3.68 2.38 2.36 0 1 C0 0.67 0 0.34 0 0 Z " transform="translate(431,579)" style="fill: #862827;"/><path d="M0 0 C2.97 0.33 5.94 0.66 9 1 C9 1.99 9 2.98 9 4 C6.03 3.01 3.06 2.02 0 1 C0 0.67 0 0.34 0 0 Z " transform="translate(49,538)" style="fill: #883737;"/><path d="M0 0 C4.42857143 5.14285714 4.42857143 5.14285714 5 9 C3.0625 8.4375 3.0625 8.4375 1 7 C0.25 3.375 0.25 3.375 0 0 Z " transform="translate(579,377)" style="fill: #85302C;"/><path d="M0 0 C1.32 0.33 2.64 0.66 4 1 C3.01 3.97 2.02 6.94 1 10 C0.67 10 0.34 10 0 10 C0 6.7 0 3.4 0 0 Z " transform="translate(568,332)" style="fill: #EFDAD2;"/><path d="M0 0 C0 0.66 0 1.32 0 2 C-3.37097383 3.49821059 -5.20442119 4 -9 4 C-9 3.34 -9 2.68 -9 2 C-3.375 0 -3.375 0 0 0 Z " transform="translate(330,275)" style="fill: #853332;"/><path d="M0 0 C0.66 1.32 1.32 2.64 2 4 C0.68 4.99 -0.64 5.98 -2 7 C-2.66 6.67 -3.32 6.34 -4 6 C-2.68 4.02 -1.36 2.04 0 0 Z " transform="translate(563,248)" style="fill: #882E2A;"/><path d="M0 0 C2.96404505 2.80804268 5.44499019 5.18315774 7 9 C3.17475764 7.549046 1.80909034 5.61818068 0 2 C0 1.34 0 0.68 0 0 Z " transform="translate(283,76)" style="fill: #832E29;"/><path d="M0 0 C2.31 0 4.62 0 7 0 C5.68 1.32 4.36 2.64 3 4 C2.01 3.67 1.02 3.34 0 3 C0 2.01 0 1.02 0 0 Z " transform="translate(483,581)" style="fill: #872526;"/><path d="M0 0 C1.23076923 4.92307692 1.23076923 4.92307692 0 8 C-1.485 8.99 -1.485 8.99 -3 10 C-2.01 6.7 -1.02 3.4 0 0 Z " transform="translate(288,560)" style="fill: #F4E0DA;"/><path d="M0 0 C3.3 0 6.6 0 10 0 C7.09907498 1.93395001 6.10325263 2.30131941 2.8125 2.625 C1.554375 2.74875 0.29625 2.8725 -1 3 C-0.67 2.01 -0.34 1.02 0 0 Z " transform="translate(166,444)" style="fill: #81201D;"/><path d="M0 0 C1.33332095 2.6666419 0.67102033 4.16680303 0 7 C-1.32 7 -2.64 7 -4 7 C-2.79618552 4.50638429 -1.54571278 2.31856917 0 0 Z " transform="translate(350,371)" style="fill: #852C2A;"/><path d="M0 0 C1.98 0.99 3.96 1.98 6 3 C5.01 3.99 4.02 4.98 3 6 C1.5 4.6875 1.5 4.6875 0 3 C0 2.01 0 1.02 0 0 Z " transform="translate(362,209)" style="fill: #8A2D2B;"/><path d="M0 0 C1.98 1.65 3.96 3.3 6 5 C4.125 5.625 4.125 5.625 2 6 C0 4 0 4 0 0 Z " transform="translate(204,134)" style="fill: #8A3738;"/></svg>